<svg width="32" height="33" viewBox="0 0 32 33" fill="none" xmlns="http://www.w3.org/2000/svg">
<path d="M16.3116 9.01947L15.0372 17.4168L16.3116 32.1136L28.9781 27.9149L28.7999 13.44L16.3116 9.01947Z" fill="#C48958"/>
<path d="M3.6452 13.2182L3.6452 27.9149L16.3116 32.1136L16.3116 9.01947L3.6452 13.2182Z" fill="#E3A76F"/>
<path d="M17.9947 12.5534C17.7895 12.1293 17.7416 11.6461 17.8595 11.1908C17.9774 10.7356 18.2535 10.3383 18.6378 10.0705L18.7731 9.9732L19.1929 9.82916L22.6763 8.82643C22.7642 8.79687 22.8592 8.79574 22.9479 8.82319C23.0367 8.85065 23.1148 8.90532 23.1712 8.97953C23.2277 9.05374 23.2597 9.14376 23.2627 9.23697C23.2657 9.33017 23.2397 9.42187 23.1881 9.4992L20.7752 13.1718C20.6568 13.2899 20.5239 13.3925 20.3798 13.4771C19.9397 13.6426 19.454 13.6399 19.0145 13.4697C18.5749 13.2995 18.2121 12.9735 17.9947 12.5534V12.5534Z" fill="#FFA400"/>
<path d="M21.5255 15.1999L20.9049 13.5961L21.5188 15.205C22.4189 15.7412 26.7613 18.5046 28.4471 23.4186L28.6148 23.9075C28.6757 24.127 28.6497 24.3614 28.5423 24.5624C28.4349 24.7633 28.2543 24.9154 28.0379 24.987L14.2631 29.7127C13.9355 28.7576 19.3189 25.187 18.4699 22.7123C17.0338 18.5181 19.9801 16.1272 21.5255 15.1999V15.1999Z" fill="#E6E6E6"/>
<path d="M20.7394 13.1776C19.7826 13.5425 18.7933 13.5917 18.2849 12.5768C18.0795 12.126 18.0385 11.6175 18.169 11.1401C18.2996 10.6627 18.5934 10.2466 18.9992 9.96457L19.1437 9.86146C18.1584 8.62205 16.739 7.80527 15.1751 7.57774C13.6112 7.35021 12.0205 7.72907 10.7277 8.63705C9.63364 9.40168 8.81986 10.5044 8.41051 11.777C8.00116 13.0496 8.01871 14.4221 8.46049 15.6852L8.47087 15.7154C8.65339 16.2474 11.3278 24.1986 13.0951 29.1947C13.2526 29.6536 13.88 29.8441 14.3302 29.6897L15.1901 29.3947C15.8435 29.1724 16.4467 28.8232 16.965 28.3671C17.4834 27.9109 17.9069 27.3568 18.2113 26.7364C18.5157 26.1159 18.695 25.4412 18.7391 24.7508C18.7832 24.0604 18.6912 23.3679 18.4682 22.7127C17.028 18.5146 19.9645 16.1292 21.5079 15.1882L20.7394 13.1776Z" fill="#404041"/>
<path d="M13.0619 12.9976C13.1763 13.3358 13.3869 13.6331 13.667 13.8518C13.9471 14.0706 14.2842 14.2009 14.6356 14.2264C14.987 14.2518 15.337 14.1713 15.6412 13.9949C15.9455 13.8185 16.1904 13.5542 16.345 13.2355C16.4996 12.9167 16.5569 12.5578 16.5097 12.204C16.4624 11.8503 16.3128 11.5177 16.0797 11.2483C15.8466 10.9788 15.5405 10.7846 15.2001 10.6903C14.8597 10.5959 14.5002 10.6057 14.1672 10.7182C13.9469 10.793 13.7437 10.9112 13.5693 11.066C13.3948 11.2208 13.2525 11.4092 13.1505 11.6204C13.0485 11.8315 12.9887 12.0614 12.9747 12.2968C12.9606 12.5322 12.9925 12.7686 13.0686 12.9924L13.0619 12.9976ZM13.792 12.7471C13.7255 12.5564 13.7161 12.3505 13.7651 12.1555C13.8141 11.9605 13.9192 11.7852 14.0672 11.6517C14.2151 11.5182 14.3993 11.4325 14.5964 11.4054C14.7935 11.3783 14.9947 11.4111 15.1745 11.4997C15.3543 11.5882 15.5046 11.7284 15.6065 11.9027C15.7084 12.077 15.7572 12.2774 15.7468 12.4787C15.7365 12.68 15.6674 12.873 15.5482 13.0335C15.4291 13.1939 15.2653 13.3145 15.0776 13.38C14.9532 13.4231 14.8214 13.4409 14.6897 13.4323C14.558 13.4237 14.429 13.3889 14.3101 13.33C14.1912 13.271 14.0847 13.1891 13.9966 13.0888C13.9086 12.9885 13.8408 12.8718 13.7971 12.7454L13.792 12.7471Z" fill="white"/>
<path d="M15.1018 13.38C15.6323 13.198 15.9148 12.6203 15.7328 12.0898C15.5508 11.5593 14.9732 11.2768 14.4427 11.4588C13.9122 11.6408 13.6297 12.2184 13.8117 12.7489C13.9937 13.2794 14.5713 13.562 15.1018 13.38Z" fill="#2B2B2B"/>
<path d="M16.6399 16.64L13.2266 22.6504L11.52 29.3286L16.6399 31.9999L16.6399 16.64Z" fill="#E3A76F"/>
<path d="M16.64 32V16.64L20.48 22.3999L28.7999 19.8399V25.5999L16.64 32Z" fill="#C48958"/>
<path d="M5.12 21.7599V26.9964L15.36 28.1599V21.7599H5.12Z" fill="#E3A76F"/>
<path d="M20.0725 23.04L16.64 16.64L28.5674 12.8L31.9999 18.7357L20.0725 23.04Z" fill="#E3A76F"/>
<path d="M13.44 23.04L16.64 16.64L3.71858 12.8L0 18.7357L13.44 23.04Z" fill="#F2D1A5"/>
<path d="M12.8 0H15.36V5.11999H12.8V0Z" fill="#FFDA44"/>
<path d="M6.05316 2.89856L7.52741 2.04737L10.3696 6.9701L8.89538 7.82129L6.05316 2.89856Z" fill="#FFDA44"/>
<path d="M19.4501 6.11035L22.2923 1.18762L23.7666 2.03881L20.9244 6.96154L19.4501 6.11035Z" fill="#FFDA44"/>
</svg>
